<svg width="60" height="60" viewBox="0 0 60 60" fill="none" xmlns="http://www.w3.org/2000/svg">
<path opacity="0.3" d="M37 0C49.7025 0 60 10.2975 60 23V37C60 49.7025 49.7025 60 37 60H23C10.2975 60 0 49.7025 0 37V23C0 10.2975 10.2975 0 23 0H37Z" fill="#FF9066"/>
<path opacity="0.78" fill-rule="evenodd" clip-rule="evenodd" d="M28.6309 23.8089C28.651 23.5484 28.8682 23.3472 29.1294 23.3472H29.5473C29.8041 23.3472 30.0192 23.5418 30.0448 23.7974L30.6664 30.0139L35.0812 32.5366C35.237 32.6256 35.3331 32.7913 35.3331 32.9707V33.3592C35.3331 33.6889 35.0196 33.9284 34.7015 33.8416L28.3984 32.1226C28.167 32.0595 28.0131 31.841 28.0315 31.6019L28.6309 23.8089Z" fill="#FF9066"/>
<path opacity="0.901274" d="M21.8525 15.1902C21.9479 14.7906 22.4575 14.6695 22.7217 14.9841L24.5205 17.1286C26.2036 16.412 28.0552 16.0134 30 16.0134L30.3613 16.0183C37.9262 16.2099 43.9998 22.4024 44 30.0134C44 37.7454 37.732 44.0134 30 44.0134C22.268 44.0134 16 37.7454 16 30.0134C16 28.7004 16.1805 27.4294 16.5186 26.2243L19.0859 26.945C18.8086 27.9339 18.667 28.9629 18.667 30.0134C18.667 36.2726 23.7408 41.3474 30 41.3474C36.2592 41.3474 41.333 36.2726 41.333 30.0134C41.3328 23.9499 36.5712 18.9985 30.583 18.695L30 18.6804C28.7318 18.6804 27.4968 18.8888 26.332 19.2868L28.1328 21.4333C28.3974 21.7486 28.1892 22.2303 27.7783 22.2536L20.7334 22.6531C20.3992 22.6719 20.1411 22.3634 20.2188 22.0378L21.8525 15.1902Z" fill="#FF9066"/>
</svg>
